<svg xmlns="http://www.w3.org/2000/svg" height="682.667" viewBox="0 -11 512 512" width="682.667" xmlns:v="https://vecta.io/nano" fill="#FFD872"><path d="M164.555 246.516h-34.703v-88.211c0-6.539-6.008-10.93-14.945-10.93s-14.945 4.391-14.945 10.93v104.438c0 6.426 5.746 11.086 13.66 11.086h50.934c6.238 0 10.766-5.742 10.766-13.656 0-8.043-4.426-13.656-10.766-13.656zm33.113-99.141c-8.937 0-14.941 4.391-14.941 10.93v104.438c0 6.527 6.145 11.086 14.941 11.086 8.66 0 14.941-4.66 14.941-11.086V158.305c0-6.539-6.004-10.93-14.941-10.93zm102.203 0c-8.937 0-14.941 4.391-14.941 10.93v46.102l-22.527-43.539c-5.5-10.465-9.887-13.492-19.566-13.492-8.937 0-14.945 4.457-14.945 11.09v104.277c0 6.527 6.145 11.086 14.945 11.086 8.656 0 14.941-4.66 14.941-11.086v-46.637l26.102 48.801c3.246 5.922 8.629 8.922 15.996 8.922 8.656 0 14.941-4.66 14.941-11.086V158.305c0-6.539-6.004-10.93-14.945-10.93zm101.078 27.316c6.43 0 11.09-5.809 11.09-13.816 0-7.824-4.66-13.5-11.09-13.5H343.75c-7.914 0-13.656 4.664-13.656 11.09v104.277c0 6.426 5.742 11.086 13.656 11.086h57.199c6.43 0 11.09-5.676 11.09-13.5 0-8.004-4.66-13.812-11.09-13.812H359.98v-23.297h19.922c7.203 0 11.086-6.457 11.086-12.535 0-7.328-4.766-12.855-11.086-12.855H359.98v-23.137zm34.914-114.046C387.684 21.535 323.805 0 256 0S124.32 21.535 76.137 60.645C27.039 100.488 0 153.746 0 210.602c0 53.504 24.348 104.473 68.555 143.516 39.934 35.27 92.961 58.039 150.535 64.875v55.855c0 8.285 6.715 15 15 15 25.945 0 96.18-31.84 155.477-77.527 35.422-27.293 63.809-56.602 84.371-87.121C499.191 287.711 512 249.152 512 210.602c0-56.855-27.039-110.113-76.137-149.957zm-64.605 327.91c-26.348 20.301-56.844 39.168-85.867 53.129-15.652 7.531-27.703 12.156-36.305 14.852v-51.168c0-7.859-6.066-14.387-13.902-14.961C120.129 381.984 30 303.004 30 210.602 30 111.02 131.383 30 256 30s226 81.02 226 180.602c0 76.559-60.223 139.031-110.742 177.953zm0 0"/></svg>