<svg xmlns="http://www.w3.org/2000/svg" viewBox="0 0 52.851 52.851" xmlns:v="https://vecta.io/nano" fill="#FFD872"><path d="M52.412 9.656c-.354-.24-.823-.227-1.165.031-.449.34-1.179.61-1.965.818 2.047-2.294 2.091-3.826 2.069-4.178a1 1 0 0 0-1.586-.746c-2.303 1.674-4.597 2.027-5.961 2.063-2.094-2.004-4.813-3.102-7.707-3.102-6.196 0-11.236 5.108-11.236 11.386a11.6 11.6 0 0 0 .113 1.613C14.236 17.42 5.516 7.131 5.426 7.024a1 1 0 0 0-.854-.355c-.326.028-.617.213-.78.497-3.09 5.36-1.022 10.068.868 12.764-.334-.178-.605-.354-.767-.473a1 1 0 0 0-1.598.786c-.083 5.108 2.375 8.034 4.687 9.652a1.01 1.01 0 0 0-.835.318 1 1 0 0 0-.221.969c1.597 5.227 5.518 7.003 8.013 7.606-5.13 3.994-12.68 2.708-12.763 2.694a1 1 0 0 0-.783 1.779c5.415 4.133 11.892 5.048 16.57 5.048 3.539 0 6.05-.524 6.29-.577 23.698-5.616 24.365-27.323 24.31-30.88 4.449-4.137 5.144-5.713 5.251-6.103.115-.413-.047-.853-.402-1.093zm-6.538 6.035a1 1 0 0 0-.32.803c.063.96 1.275 23.597-22.742 29.288-.109.023-9.656 2.015-17.932-2.085 3.497-.097 8.511-1.013 12.004-4.935a1 1 0 0 0-.746-1.665c-.06.032-5.311-.006-7.715-5.001.968.055 2.162-.005 3.113-.443a1 1 0 0 0-.213-1.887c-.269-.057-6.115-1.364-6.933-7.741.887.388 2.022.705 3.144.534a1 1 0 0 0 .506-1.745c-.25-.218-5.74-5.097-3.137-11.39 2.826 2.965 11.196 10.67 21.337 10.088.297-.017.572-.167.749-.407a1 1 0 0 0 .164-.835 9.63 9.63 0 0 1-.29-2.341c0-5.176 4.144-9.386 9.237-9.386 2.491 0 4.828.994 6.579 2.8.184.19.437.299.701.304 1.06.015 2.802-.11 4.77-.899-.568.707-1.402 1.554-2.629 2.518a1 1 0 0 0-.313 1.151c.161.412.577.671 1.011.632a22.6 22.6 0 0 0 2.764-.414c-.734.788-1.737 1.794-3.109 3.056z"/></svg>