<svg xmlns="http://www.w3.org/2000/svg" viewBox="0 -62 512.002 512" xmlns:v="https://vecta.io/nano" fill="#FFD872"><path d="M334.809 170.992l-113.113-61.891a20.59 20.59 0 0 0-30.75 18.227v122.719c0 7.379 3.781 14.047 10.117 17.832 3.309 1.977 6.977 2.969 10.652 2.969a20.74 20.74 0 0 0 9.848-2.504L334.68 207.52a20.77 20.77 0 0 0 10.938-18.223c.027-7.629-4.113-14.641-10.809-18.305zM220.95 234.609V142.89l84.539 46.258zM508.234 91.527l-.023-.234c-.434-4.121-4.75-40.777-22.57-59.422C465.043 9.941 441.691 7.277 430.461 6l-2.543-.305-.895-.094C359.336.68 257.113.008 256.09.004L256 0l-.09.004C254.887.008 152.664.68 84.367 5.602l-.902.094-2.398.289c-11.102 1.281-34.204 3.949-54.86 26.671C9.234 51.102 4.328 86.973 3.824 91.004l-.059.523C3.613 93.242 0 134.066 0 175.051v38.313c0 40.984 3.613 81.809 3.766 83.527l.027.258c.434 4.055 4.746 40.039 22.484 58.691 19.367 21.195 43.855 24 57.027 25.508 2.082.238 3.875.441 5.098.656l1.184.164c39.082 3.719 161.617 5.551 166.812 5.625l.156.004.156-.004c1.023-.004 103.242-.676 170.93-5.598l.895-.094c.855-.113 1.816-.215 2.871-.324 11.039-1.172 34.016-3.605 54.387-26.02 16.973-18.449 21.883-54.32 22.383-58.348l.059-.523c.152-1.719 3.77-42.539 3.77-83.523v-38.312c-.004-40.984-3.617-81.805-3.77-83.523zm-26.238 121.836c0 37.934-3.312 77-3.625 80.586-1.273 9.879-6.449 32.574-14.719 41.563-12.75 14.027-25.848 15.418-35.41 16.43l-3.195.359c-65.469 4.734-163.832 5.461-168.363 5.488-5.082-.074-125.824-1.922-163.715-5.441-1.941-.316-4.039-.559-6.25-.809-11.215-1.285-26.566-3.043-38.371-16.027l-.277-.297c-8.125-8.465-13.152-29.687-14.43-41.148-.238-2.711-3.637-42.238-3.637-80.703v-38.312c0-37.891 3.305-76.914 3.625-80.574 1.52-11.637 6.793-32.957 14.719-41.574 13.141-14.453 26.996-16.055 36.16-17.113l2.445-.293C153.375 30.74 252.445 30.033 256 30.006c3.555.023 102.59.734 168.422 5.492l2.641.313c9.426 1.074 23.672 2.699 36.746 16.645l.121.129c8.125 8.465 13.152 30.059 14.43 41.75.227 2.559 3.637 42.172 3.637 80.719zm0 0"/></svg>