<svg xmlns="http://www.w3.org/2000/svg" height="709.333" viewBox="-27 -17 532 532.001" width="709.333" xmlnsV="https://vecta.io/nano" fill="currentColor"><path d="M477.344 184.766v-76.934c-.035-30.25-24.551-54.766-54.801-54.801h-14.43v-8.652C407.988 19.828 388.051 0 363.504 0s-44.48 19.828-44.613 44.379v8.652H157.719v-8.652C157.594 19.828 137.656 0 113.109 0s-44.48 19.828-44.613 44.379v8.652H54.063C23.816 53.066-.699 77.582-.734 107.832v336.117c.035 30.25 24.551 54.766 54.797 54.801h368.48c30.25-.035 54.766-24.551 54.801-54.801V192.676a12.35 12.35 0 0 0 0-7.91zM363.504 24.715c10.852.016 19.645 8.805 19.656 19.664v26.273c-.082 10.793-8.863 19.5-19.664 19.5a19.66 19.66 0 0 1-19.66-19.5V44.379c.012-10.859 8.809-19.652 19.668-19.664zM93.441 44.379c.086-10.801 8.863-19.508 19.66-19.508s19.574 8.707 19.664 19.508v26.273c-.09 10.793-8.863 19.5-19.664 19.5a19.66 19.66 0 0 1-19.66-19.5zM54.063 77.98h15.043a44.61 44.61 0 0 0 87.996 0h162.402c3.586 21.508 22.195 37.273 44 37.273S403.918 99.488 407.5 77.98h15.043c16.48.02 29.832 13.371 29.852 29.852v68.41H24.215v-68.406C24.23 91.355 37.59 78 54.062 77.98zm368.48 395.82H54.063c-16.473-.02-29.828-13.371-29.848-29.852V201.191h428.18v242.758c-.02 16.48-13.371 29.832-29.852 29.852zM300.367 280.152l-81.898 79.965-41.578-40.598a12.48 12.48 0 0 0-17.562.121c-4.828 4.855-4.844 12.691-.039 17.563l.172.164 50.297 49.113c4.844 4.73 12.582 4.73 17.426 0l90.617-88.469a12.49 12.49 0 0 0 .219-17.582 12.49 12.49 0 0 0-17.582-.34l-.07.066zm0 0"/></svg>