<svg id="Layer_1" data-name="Layer 1" xmlns="http://www.w3.org/2000/svg" xmlns:xlink="http://www.w3.org/1999/xlink" viewBox="0 0 1694.87 1418.63"><defs><style>.cls-1,.cls-25{fill:none;}.cls-2{fill:#ede390;}.cls-3{clip-path:url(#clip-path);}.cls-4{fill:url(#Degradado_sin_nombre_3);}.cls-5{fill:url(#Degradado_sin_nombre_2);}.cls-6{fill:#8dcdbc;}.cls-7{fill:url(#Degradado_sin_nombre_3-2);}.cls-8{fill:url(#Degradado_sin_nombre_2-2);}.cls-9{fill:#67bcaa;}.cls-10{fill:url(#Degradado_sin_nombre_4);}.cls-11{fill:url(#Degradado_sin_nombre_2-3);}.cls-12{fill:url(#Degradado_sin_nombre_2-4);}.cls-13{fill:url(#Degradado_sin_nombre_2-5);}.cls-14{fill:url(#Degradado_sin_nombre_2-6);}.cls-15{fill:url(#Degradado_sin_nombre_2-7);}.cls-16{fill:url(#Degradado_sin_nombre_2-8);}.cls-17{fill:url(#Degradado_sin_nombre_2-9);}.cls-18{fill:url(#Degradado_sin_nombre_2-10);}.cls-19{fill:url(#Degradado_sin_nombre_2-11);}.cls-20{fill:url(#Degradado_sin_nombre_2-12);}.cls-21{fill:url(#Degradado_sin_nombre_3-3);}.cls-22{fill:#45ac9c;}.cls-23{fill:url(#Degradado_sin_nombre_5);}.cls-24{fill:url(#Degradado_sin_nombre_2-13);}.cls-25{stroke:#fff;stroke-miterlimit:10;stroke-width:0.65px;}.cls-26{fill:url(#Degradado_sin_nombre_2-14);}.cls-27{fill:url(#Degradado_sin_nombre_3-4);}.cls-28{fill:url(#Degradado_sin_nombre_3-5);}.cls-29{fill:url(#Degradado_sin_nombre_2-15);}.cls-30{fill:url(#Degradado_sin_nombre_4-2);}.cls-31{fill:url(#Degradado_sin_nombre_2-16);}.cls-32{fill:url(#Degradado_sin_nombre_3-6);}.cls-33{fill:url(#Degradado_sin_nombre_2-17);}.cls-34{fill:url(#Degradado_sin_nombre_4-3);}.cls-35{fill:url(#Degradado_sin_nombre_2-18);}.cls-36{fill:url(#Degradado_sin_nombre_2-19);}.cls-37{fill:url(#Degradado_sin_nombre_2-20);}.cls-38{fill:url(#Degradado_sin_nombre_3-7);}.cls-39{fill:url(#Degradado_sin_nombre_3-8);}.cls-40{fill:url(#Degradado_sin_nombre_2-21);}.cls-41{fill:url(#Degradado_sin_nombre_4-4);}.cls-42{fill:url(#Degradado_sin_nombre_2-22);}.cls-43{fill:url(#Degradado_sin_nombre_3-9);}.cls-44{fill:url(#Degradado_sin_nombre_2-23);}.cls-45{fill:url(#Degradado_sin_nombre_3-10);}.cls-46{fill:url(#Degradado_sin_nombre_2-24);}.cls-47{opacity:0.46;}.cls-48{fill:#eeb64f;}.cls-49{clip-path:url(#clip-path-2);}</style><clipPath id="clip-path"><rect class="cls-1" x="-3.14" width="1701.15" height="1418.63"/></clipPath><linearGradient id="Degradado_sin_nombre_3" x1="810.75" y1="791.71" x2="810.75" y2="1076.29" gradientTransform="translate(-271.79 56.72) rotate(12.7)" gradientUnits="userSpaceOnUse"><stop offset="0" stop-color="#92bb69"/><stop offset="0.99" stop-color="#679c76"/></linearGradient><linearGradient id="Degradado_sin_nombre_2" x1="720.43" y1="934" x2="901.06" y2="934" gradientTransform="translate(-271.79 56.72) rotate(12.7)" gradientUnits="userSpaceOnUse"><stop offset="0.01" stop-color="#559177"/><stop offset="1" stop-color="#2c6960"/></linearGradient><linearGradient id="Degradado_sin_nombre_3-2" x1="788.41" y1="964.36" x2="788.41" y2="1232.94" gradientTransform="translate(50.57 131.05) rotate(-11.26)" xlink:href="#Degradado_sin_nombre_3"/><linearGradient id="Degradado_sin_nombre_2-2" x1="687.25" y1="1100.07" x2="889.61" y2="1100.07" gradientTransform="translate(50.57 131.05) rotate(-11.26)" xlink:href="#Degradado_sin_nombre_2"/><linearGradient id="Degradado_sin_nombre_4" x1="1050.25" y1="1286.95" x2="1050.25" y2="1017.6" gradientTransform="translate(-38.04 -145.43) rotate(17.02)" gradientUnits="userSpaceOnUse"><stop offset="0" stop-color="#92bb69"/><stop offset="0.99" stop-color="#c0d457"/></linearGradient><linearGradient id="Degradado_sin_nombre_2-3" x1="875.99" y1="1154.58" x2="1220.66" y2="1154.58" gradientTransform="translate(-38.04 -145.43) rotate(17.02)" xlink:href="#Degradado_sin_nombre_2"/><linearGradient id="Degradado_sin_nombre_2-4" x1="876.11" y1="1154.12" x2="943.73" y2="1154.12" gradientTransform="translate(-38.04 -145.43) rotate(17.02)" xlink:href="#Degradado_sin_nombre_2"/><linearGradient id="Degradado_sin_nombre_2-5" x1="948.04" y1="1120.69" x2="1021.97" y2="1120.69" gradientTransform="translate(65.72 -187.65) rotate(21.32)" xlink:href="#Degradado_sin_nombre_2"/><linearGradient id="Degradado_sin_nombre_2-6" x1="1091.06" y1="1065.1" x2="1140.18" y2="1065.1" gradientTransform="translate(-38.04 -145.43) rotate(17.02)" xlink:href="#Degradado_sin_nombre_2"/><linearGradient id="Degradado_sin_nombre_2-7" x1="1150.69" y1="1137.96" x2="1224.14" y2="1137.96" gradientTransform="translate(-38.04 -145.43) rotate(17.02)" xlink:href="#Degradado_sin_nombre_2"/><linearGradient id="Degradado_sin_nombre_2-8" x1="1093.88" y1="1180.22" x2="1182.46" y2="1180.22" gradientTransform="translate(-38.04 -145.43) rotate(17.02)" xlink:href="#Degradado_sin_nombre_2"/><linearGradient id="Degradado_sin_nombre_2-9" x1="1059.84" y1="1141.7" x2="1084.23" y2="1141.7" gradientTransform="translate(-38.04 -145.43) rotate(17.02)" xlink:href="#Degradado_sin_nombre_2"/><linearGradient id="Degradado_sin_nombre_2-10" x1="984.15" y1="1207" x2="1021.97" y2="1207" gradientTransform="matrix(0.93, 0.37, -0.37, 0.93, 81.86, -189.95)" xlink:href="#Degradado_sin_nombre_2"/><linearGradient id="Degradado_sin_nombre_2-11" x1="964.25" y1="1224.1" x2="1010.58" y2="1224.1" gradientTransform="translate(318.76 -241.86) rotate(30.52)" xlink:href="#Degradado_sin_nombre_2"/><linearGradient id="Degradado_sin_nombre_2-12" x1="1020.62" y1="1100.54" x2="1020.62" y2="1415.01" gradientTransform="translate(56.83 128.66) rotate(-10.96)" xlink:href="#Degradado_sin_nombre_2"/><linearGradient id="Degradado_sin_nombre_3-3" x1="918" y1="1261.38" x2="1123.24" y2="1261.38" gradientTransform="translate(56.83 128.66) rotate(-10.96)" xlink:href="#Degradado_sin_nombre_3"/><linearGradient id="Degradado_sin_nombre_5" x1="912.21" y1="1078.85" x2="930.25" y2="1379.49" gradientTransform="translate(-45.28 -157.91) rotate(23.03)" gradientUnits="userSpaceOnUse"><stop offset="0.01" stop-color="#c0d457"/><stop offset="1" stop-color="#92bb69"/></linearGradient><linearGradient id="Degradado_sin_nombre_2-13" x1="847.41" y1="1213.46" x2="984.85" y2="1213.46" gradientTransform="translate(-45.28 -157.91) rotate(23.03)" xlink:href="#Degradado_sin_nombre_2"/><linearGradient id="Degradado_sin_nombre_2-14" x1="895.93" y1="1376.69" x2="895.93" y2="1571.05" gradientTransform="translate(86.59 200.66) rotate(-17.7)" xlink:href="#Degradado_sin_nombre_2"/><linearGradient id="Degradado_sin_nombre_3-4" x1="803.35" y1="1472.16" x2="981.85" y2="1472.16" gradientTransform="translate(86.59 200.66) rotate(-17.7)" xlink:href="#Degradado_sin_nombre_3"/><linearGradient id="Degradado_sin_nombre_3-5" x1="1010.51" y1="1180.93" x2="1233.84" y2="1180.93" gradientTransform="translate(-33.76 -207.12) rotate(28.63)" xlink:href="#Degradado_sin_nombre_3"/><linearGradient id="Degradado_sin_nombre_2-15" x1="1010.23" y1="1182.64" x2="1234.07" y2="1182.64" gradientTransform="translate(-33.76 -207.12) rotate(28.63)" xlink:href="#Degradado_sin_nombre_2"/><linearGradient id="Degradado_sin_nombre_4-2" x1="320.36" y1="1365" x2="320.36" y2="1061.02" gradientTransform="matrix(0.99, 0.16, -0.16, 0.99, -32.42, -47.94)" xlink:href="#Degradado_sin_nombre_4"/><linearGradient id="Degradado_sin_nombre_2-16" x1="239.69" y1="1212.39" x2="381.94" y2="1212.39" gradientTransform="matrix(0.99, 0.16, -0.16, 0.99, -32.42, -47.94)" xlink:href="#Degradado_sin_nombre_2"/><linearGradient id="Degradado_sin_nombre_3-6" x1="10.02" y1="1273.3" x2="10.02" y2="1445.77" gradientTransform="translate(308.53 415.68) rotate(-45.04)" xlink:href="#Degradado_sin_nombre_3"/><linearGradient id="Degradado_sin_nombre_2-17" x1="-40.33" y1="1359.37" x2="60.58" y2="1359.37" gradientTransform="translate(308.53 415.68) rotate(-45.04)" xlink:href="#Degradado_sin_nombre_2"/><linearGradient id="Degradado_sin_nombre_4-3" x1="657.4" y1="1400.13" x2="657.4" y2="1145.31" gradientTransform="translate(-59.51 -124.09) rotate(23.44)" xlink:href="#Degradado_sin_nombre_4"/><linearGradient id="Degradado_sin_nombre_2-18" x1="591.41" y1="1272.33" x2="723.33" y2="1272.33" gradientTransform="translate(-59.51 -124.09) rotate(23.44)" xlink:href="#Degradado_sin_nombre_2"/><linearGradient id="Degradado_sin_nombre_2-19" x1="1625" y1="773.68" x2="1625" y2="774.53" gradientTransform="matrix(1, 0, 0, 1, 0, 0)" xlink:href="#Degradado_sin_nombre_2"/><linearGradient id="Degradado_sin_nombre_2-20" x1="1625" y1="810.53" x2="1625" y2="1240.34" gradientTransform="matrix(1, 0, 0, 1, 0, 0)" xlink:href="#Degradado_sin_nombre_2"/><linearGradient id="Degradado_sin_nombre_3-7" x1="1531.35" y1="1025.44" x2="1718.63" y2="1025.44" gradientTransform="matrix(1, 0, 0, 1, 0, 0)" xlink:href="#Degradado_sin_nombre_3"/><linearGradient id="Degradado_sin_nombre_3-8" x1="1183.48" y1="1104.4" x2="1183.48" y2="1391.13" gradientTransform="matrix(0.97, -0.26, 0.26, 0.97, 95.59, 198.69)" xlink:href="#Degradado_sin_nombre_3"/><linearGradient id="Degradado_sin_nombre_2-21" x1="1127.81" y1="1247.77" x2="1237.56" y2="1247.77" gradientTransform="matrix(0.97, -0.26, 0.26, 0.97, 95.59, 198.69)" xlink:href="#Degradado_sin_nombre_2"/><linearGradient id="Degradado_sin_nombre_4-4" x1="1264.33" y1="1543.12" x2="1264.33" y2="1183.08" gradientTransform="translate(42.18 121.81) rotate(-9.22)" xlink:href="#Degradado_sin_nombre_4"/><linearGradient id="Degradado_sin_nombre_2-22" x1="1166.45" y1="1364.73" x2="1361.6" y2="1364.73" gradientTransform="translate(42.18 121.81) rotate(-9.22)" xlink:href="#Degradado_sin_nombre_2"/><linearGradient id="Degradado_sin_nombre_3-9" x1="1285.78" y1="1303.59" x2="1285.78" y2="1588.16" gradientTransform="matrix(0.98, -0.21, 0.21, 0.98, 59.59, 171.92)" xlink:href="#Degradado_sin_nombre_3"/><linearGradient id="Degradado_sin_nombre_2-23" x1="1195.47" y1="1445.88" x2="1376.09" y2="1445.88" gradientTransform="matrix(0.98, -0.21, 0.21, 0.98, 59.59, 171.92)" xlink:href="#Degradado_sin_nombre_2"/><linearGradient id="Degradado_sin_nombre_3-10" x1="657.21" y1="1143.85" x2="653.2" y2="1426.45" gradientTransform="translate(-43.73 -113.27) rotate(19.07)" xlink:href="#Degradado_sin_nombre_3"/><linearGradient id="Degradado_sin_nombre_2-24" x1="527.26" y1="1282.81" x2="782.09" y2="1282.81" gradientTransform="translate(-43.73 -113.27) rotate(19.07)" xlink:href="#Degradado_sin_nombre_2"/><clipPath id="clip-path-2"><rect class="cls-1" x="1725" y="0.24" width="1080" height="1920"/></clipPath></defs><title>PC</title><rect class="cls-2" x="-3.14" width="1701.15" height="1418.63"/><g class="cls-3"><path class="cls-4" d="M386.82,1231c-8.32-38.1-38-7.85-44.47-27.78s42.59-1.39,45-42.28-43-15.6-45.18-32.16,32.89-7.13,38.49-32-28.31-7.57-34.86-17.92c-5.81-9.19,39.55-41.49,13.22-64.57a32,32,0,0,0-29.66-6.68c-33.68,9.56-6.56,58.19-15.75,64-10.35,6.54-33.57-23.64-39.17,1.24s30.13,31.39,21,45.41-39.28-28.3-54.61,9.68,37,42.29,22.56,57.51-28.23-24.83-52.09,6c-17.4,22.5,9,50.07,24.6,63.35q8.19,7,16.15,14.18a67.14,67.14,0,0,0,64.67,14.55c6.83-2.09,13.72-4,20.62-5.88C357.21,1272.4,392.9,1258.82,386.82,1231Z"/><polygon class="cls-5" points="386.62 1230.14 291.05 1251.21 300.22 1210.55 342.48 1204.17 342.21 1202.35 300.65 1208.61 309.6 1168.88 387.02 1151.72 386.62 1149.92 310.05 1166.88 318.06 1131.37 342.27 1129.74 342.14 1127.9 318.48 1129.49 323.79 1105.91 381.51 1093.15 381.12 1091.35 324.24 1103.92 329.77 1079.36 345.46 1077.42 345.24 1075.58 330.2 1077.45 337.42 1045.41 367.63 1029.62 366.78 1027.98 337.95 1043.05 345.98 1007.44 344.18 1007.04 336.15 1042.65 316.58 1016.67 315.11 1017.78 335.62 1045.01 328.4 1077.05 315.63 1068.91 314.63 1070.47 327.97 1078.96 322.44 1103.52 276.43 1067.81 275.3 1069.27 321.99 1105.51 316.68 1129.09 295.98 1117.49 295.08 1119.11 316.25 1130.97 308.23 1166.57 243.65 1122.47 242.61 1123.99 307.8 1168.51 298.85 1208.21 264 1184.73 262.96 1186.26 298.42 1210.14 289.25 1250.81 211.95 1190.78 210.82 1192.24 288.8 1252.8 281.63 1284.65 283.43 1285.05 290.61 1253.2 387.02 1231.94 386.62 1230.14"/><path class="cls-6" d="M-1.63,1123.83S187,1055.61,518,1133.62,1075.57,980.91,1696.5,980.91v438.2H-1.63Z"/><path class="cls-7" d="M1001.78,1166.8c-20.59-15.69-43.72-42.69-61.2-89.15,64.95,27.55,87.78,66,87.78,66s-41.07-53.81-61.65-157.25c71.48,60.42,85.77,132.21,85.77,132.21s-29.09-114.39-13.44-201c51.54,83.36,59.89,218.32,59.89,218.32s-9.08-67.9,35-114.5c9.7,110.75-.52,140.24-40.71,157.33C1063,1191.66,1027.94,1186.74,1001.78,1166.8Z"/><path class="cls-8" d="M1082.39,1181.53c-19.1-147-42.21-262.92-42.44-264.08l-1.81.36c.23,1.15,23.13,116,42.17,262.09C1035.62,1127.72,968.23,987.46,967.54,986l-1.67.8c.7,1.45,69.22,144.06,114.07,195.46-59.18,15.15-137.79-103.92-138.58-105.14l-1.55,1c3.23,4.94,78.17,118.43,138.27,106.47,1.07-.21,2.15-.49,3.22-.79l1.62,1.83-.29-2.25c44.3-15.78,51.95-155.92,52.25-161.91l-1.84-.09C1133,1022.86,1125.19,1165.51,1082.39,1181.53Z"/><path class="cls-9" d="M-1.63,1253s82.45-37.94,169.74-58.77c153.26-36.58,330.59-47.41,487.5-33.5,589.5,52.27,619.87-116.21,885.11-208.08a474.19,474.19,0,0,1,155.34-26.08v492.55H-1.63Z"/><path class="cls-10" d="M804.81,1254.21c-8.94-16.83-63-49.3-147,71.72,28.83-91.74,111.5-121.43,93.17-156s-81.8-25.25-147.89,141.87c20.14-98.29-1.6-215.69-42.78-193.82-34.88,18.53-29.34,41.6-17.39,132.71-24-102.58-99.07-88.11-65.83-25.55a307.56,307.56,0,0,1,29.2,82.47c9.4,46.09,47.91,81.12,94.6,86.53,53.1,6.16,74.56-32,159.73-77.66C781.83,1305.18,820.57,1283.89,804.81,1254.21Z"/><path class="cls-11" d="M807.77,1261.76l-.54-1.77c-.86.27-87.23,26.88-134.59,83.68-41.61,49.9-81.5,46.92-90.1,45.58,6.38-6.34,34.87-37.21,65.4-109.78,34.27-81.47,98.17-115.1,98.81-115.43l-.84-1.64c-.65.33-65.13,34.23-99.67,116.36-30.2,71.77-58.29,102.47-64.81,109-7-133.55-20-268.46-20.16-269.82l-1.84.18c.13,1.36,13.23,136.54,20.18,270.19-23.52-11.82-27.73-29.24-38.61-74.35-3.39-14-7.22-29.91-12.47-49.3-23-85.09-56.32-79.91-57.72-79.65l.34,1.82c.33-.06,33-5.14,55.6,78.31,5.24,19.37,9.07,35.24,12.45,49.25,11.07,45.84,15.33,63.46,39.77,75.66l-.27.24,1.59.41,1.32.64,0-.37c7.54,1.32,49.21,5.76,92.46-46.11C721.06,1288.48,806.91,1262,807.77,1261.76Z"/><path class="cls-12" d="M469.18,1190.76l.06,1.84c.3,0,30.33,0,48.3,65.86l1.78-.49C500.93,1190.51,470.47,1190.71,469.18,1190.76Z"/><rect class="cls-13" x="574.87" y="1115.19" width="1.84" height="198.6" transform="translate(-89.49 46.62) rotate(-4.3)"/><path class="cls-14" d="M683.73,1230.1c.31-.4,31.78-40.22,67.72-59.31l-.87-1.63c-36.28,19.27-68,59.39-68.31,59.8Z"/><path class="cls-15" d="M808.25,1269.61c-28.83,3.23-85.86,38.41-88.27,39.91l1,1.56c.59-.36,59.09-36.45,87.5-39.63Z"/><path class="cls-16" d="M646.48,1361.44c.55-.71,56.25-71.71,117.89-88.4l-.48-1.78c-62.23,16.85-118.31,88.33-118.87,89Z"/><path class="cls-17" d="M625.58,1313.83c22.37-73.07,55.74-105.84,56.07-106.16l-1.28-1.33c-.34.32-34,33.37-56.56,107Z"/><rect class="cls-18" x="566.87" y="1253.46" width="1.85" height="97.69" transform="translate(-104.16 50.56) rotate(-4.67)"/><rect class="cls-19" x="546.91" y="1270.01" width="1.85" height="88.12" transform="translate(-291.56 164.15) rotate(-13.5)"/><path class="cls-20" d="M1341.45,1321a45.29,45.29,0,0,1-50.71-27.83c-10-25.17-29.35-58.69-66.09-83.5-66.89-45.18-11-97,45-42.49-47.59-127.62,24.29-183.88,73-151s-28.78,132-4.6,217.63c21.36-92,93.33-43.36,65.34-1.91a215.52,215.52,0,0,0-27.14,57.59,45.39,45.39,0,0,1-34.77,31.49Z"/><path class="cls-21" d="M1409.66,1206.13l-1.32-1.29c-.43.43-41.41,42.9-65,107.81,3.22-23.06,15.51-87.68,55.09-124.36l-1.25-1.35c-38.26,35.44-51.28,96.56-55.19,122.18-.13-27.93,3.62-97.75,42.48-126.72l-1.11-1.48c-35.94,26.8-42.35,87.59-43.12,119.59-1.73-19.5-3.58-48.52-1.35-66.53l-1.83-.23c-2.56,20.64.19,55.51,2,74.36-5.86-24.65-17.66-82-17.4-143.23.34-80.77,28.89-141,29.18-141.6l-1.66-.8c-.29.6-29,61.18-29.37,142.39-.19,45.46,6.26,88.83,12,118.33-6.59-25.14-16.12-63.59-28.05-117.47-23.91-108,32.27-152.13,32.84-152.56l-1.12-1.47c-.58.44-57.71,45.2-33.53,154.43,16.13,72.82,27.87,117.48,33.91,139.18-15.11-37.22-52.59-134-61.41-199-11-80.72,33.58-98,34-98.16l-.63-1.74c-.46.17-46.41,17.86-35.23,100.15,7.63,56.16,36.6,136,54.14,180.86l-.57-1.11-55.83-119.53-1.67.78,44.91,96.15c-54.29-90.48-115.09-109.22-115.81-109.43l-.52,1.77c.77.23,70.64,21.77,127.24,131l7.87,16.87c-20.25-32.41-70.46-103.26-137.25-131.06l-.71,1.7c71.89,29.93,124.54,110.25,140.84,137.6-11.13-12.88-34.65-37.94-61.87-54.06l-.94,1.58c35.86,21.25,65.29,58.17,68,61.59l-.58,7.31,1.51-4.58,1.51,4.81-.21-2.91.35.74-.68-5.48c17.67-33.51,47.18-63.79,47.47-64.09l-1.31-1.29c-.28.27-24.86,25.51-42.7,55.47C1369.37,1247.91,1409.24,1206.56,1409.66,1206.13Z"/><path class="cls-22" d="M-1.63,1172.84s214.42-62.93,491.53,54.35,685.66,255.67,1206.16-140.73v332.65H-1.63Z"/><path class="cls-23" d="M411.14,1228.57c8.22-51.92-34.27-66-56.91-36.07s-55.44,14-60,50.69-8.24,40-46.87,87.94c-19.62,24.34-24.72,50.77-25,70.88-.29,21.88,9.36,47.39,40.17,56.55,88.73,26.38,86.9-77,128.25-117C432.78,1301,402.92,1280.5,411.14,1228.57Z"/><polygon class="cls-24" points="351.49 1412.2 351.68 1410.36 285.23 1403.35 314.43 1344.76 383.71 1350.39 383.86 1348.55 315.31 1342.97 347.72 1277.93 412.54 1280.48 412.62 1278.63 348.63 1276.12 376.82 1219.53 412.07 1220.4 412.12 1218.55 377.73 1217.71 396.12 1180.8 394.47 1179.97 376.13 1216.77 357.31 1189.16 355.78 1190.2 375.19 1218.67 347 1275.23 306.28 1220.73 304.8 1221.83 346.08 1277.08 313.71 1342.05 276.76 1294.1 275.3 1295.23 312.79 1343.89 283.58 1402.52 235.18 1350.41 233.82 1351.67 282.7 1404.29 256.71 1456.44 258.37 1457.27 284.35 1405.11 351.49 1412.2"/><line class="cls-25" x1="1346.59" y1="1425.73" x2="1427.64" y2="1399.87"/><path class="cls-26" d="M1463.89,1392.76a108.13,108.13,0,0,1-120.19,32c-22.14-8.25-39.53-23.27-32.62-50.6,11.57-45.36-44.46-82.18,16.08-121s71,34.66,120.31,42.36C1485.22,1301.32,1502.71,1346.45,1463.89,1392.76Z"/><path class="cls-27" d="M1468,1304l-46,85c-6.22-9.93-12.45-19.63-18.57-29l34.91-66.7-1.64-.86-34.43,65.79c-8.29-12.63-16.37-24.61-24-35.66l32.28-47.76-1.53-1-31.87,47.16c-7.44-10.79-14.39-20.67-20.59-29.35l25-42.52-1.59-.94-24.6,41.82c-7.07-9.88-13.11-18.13-17.71-24.35l8.48-21.08-1.71-.69-8.06,20c-5.28-7.1-8.36-11.13-8.49-11.3l-1.47,1.13c.19.23,6,7.82,15.46,20.76l-38.59,1,0,1.85,39.86-1c5.52,7.56,12.17,16.79,19.59,27.34l-62.56,4.72.14,1.84,63.66-4.81c7.65,10.88,16.08,23.09,24.93,36.26l-76.47,16.76.39,1.8,77.18-16.91c7.12,10.61,14.48,21.82,21.92,33.44l-99.35,23,.42,1.8,100-23.19c7.81,12.22,15.67,24.9,23.39,37.79l1.58-.95q-7.39-12.36-14.92-24.4l46.5-85.92Z"/><path class="cls-28" d="M308.25,1427c9.8-32.67,19.05-87.77-3.53-144.91,57.72,31.51,54,87.45,54,87.45s47.45-68.81,26.18-141.2c64.25,35.07,35.91,128.44,35.91,128.44S473,1325.86,521,1352c-42.2-3.64-109.08,70.89-142.62,112.09a40.43,40.43,0,0,1-50.73,10h0A40.44,40.44,0,0,1,308.25,1427Z"/><path class="cls-29" d="M520.75,1352.91l.43-1.79c-.55-.14-56.24-12.71-117.59,58.13-29.78,34.7-57.5,55.17-68.31,62.54,11.22-14.48,46.12-62.57,65.87-124.56,23.76-74.51-15.13-119.1-15.52-119.54l-1.38,1.23c.39.43,38.56,44.29,15.15,117.75C379.2,1410,343.1,1458.83,333,1471.74c5.65-22.63,28.74-130.68-27.58-190.32l-1.34,1.27c62.09,65.74,26.41,191.49,26,192.75l-1.22,4.19,2.72-3.22c2.39-1.47,36.33-22.77,73.4-66C465.54,1340.53,520.2,1352.78,520.75,1352.91Z"/><path class="cls-30" d="M131.37,1157.72c-33.78-107.46-94.78-118.81-94.78-118.81s45.76,57.88,28.14,164.37c-12,72.23-.67,115.91,7.83,136.54a27.42,27.42,0,0,0,20.88,16.61h0a27.14,27.14,0,0,0,20.62-4.87C150.79,1324.27,162.3,1256.1,131.37,1157.72Z"/><path class="cls-31" d="M76.53,1070.29c-20.67-24.66-38.17-31.69-39.52-32.2l-5.54-3.57,4.43,5c47,53.09,51.29,101.13,49.89,198.09-1.44,99.92,6.47,118.47,6.81,119.21l.87,1.91.7-1.65c4.37-2.51,54.6-34,40.06-143.44C121.62,1137,95.89,1093.4,76.53,1070.29Zm11.11,167.35c1.34-93.06-2.56-141.31-44.2-192.12,15.66,13.8,51.91,53.33,64.75,132,14.85,91.09-9.46,162.35-14.66,176.13C91.56,1346.2,86.47,1318.76,87.64,1237.64Zm7.68,116.52c5.38-14.32,29.56-85.75,14.69-176.93-12.79-78.43-48.8-118.32-64.92-132.69,20,12.67,68.4,54.48,87.31,169.37C145.54,1312.76,105.5,1347.13,95.32,1354.16Z"/><path class="cls-32" d="M1224.83,1300.07s.05,78.2,40.68,127c18.62,22.38,52.57,23.66,73.14,3.06h0a49.56,49.56,0,0,0,.28-70C1320.29,1341.49,1286.35,1319.81,1224.83,1300.07Z"/><path class="cls-33" d="M1327.25,1421.35c-6.58-6.14-12.91-12.35-19-18.56,18-30.82,13.4-57.84,13.35-58.11l-1.82.32c0,.27,4.44,26.4-12.87,56.42-5.83-6-11.41-12-16.71-17.89,17.64-29.9,11.12-51.15,10.83-52l-1.75.57c.06.21,6.44,21.15-10.38,50-5.45-6.09-10.61-12.08-15.44-17.88,17.79-23.66,8-42.78,7.9-43l-1.63.87c.1.18,9.21,18.13-7.49,40.65-5-6.08-9.74-11.93-14-17.46,12.89-13.58,8-30.52,7.92-30.69l-1.77.54c.05.16,4.62,16-7.29,28.69-4.28-5.53-8.18-10.72-11.65-15.46a28.75,28.75,0,0,0,7.87-18.66l-1.85,0a27.39,27.39,0,0,1-7.13,17.12c-11.9-16.35-18.54-27-18.71-27.26l-1.57,1c.17.28,6.9,11.06,19,27.62-7.5,7-14.63,3.08-14.94,2.91l-.92,1.6c.09,0,8.48,4.7,16.95-3,3.45,4.71,7.31,9.85,11.55,15.33-14.09,8.7-24.34,3.62-24.44,3.57l-.86,1.64c.46.24,11.25,5.65,26.43-3.76,4.31,5.53,9,11.39,14.06,17.47a49.09,49.09,0,0,1-35.26,2.26l-.66,1.73a50,50,0,0,0,37.14-2.52c4.84,5.81,10,11.8,15.47,17.91-25.56,10.16-45.52,1.13-45.72,1L1241,1386c.21.1,21.17,9.64,47.81-1.23,5.31,5.9,10.89,11.89,16.73,17.91-26.22,11.73-53.08,3.89-53.35,3.81l-.54,1.77c.29.08,28.2,8.25,55.26-4.18,6.11,6.25,12.49,12.51,19.12,18.69-30.11,15.09-59.91,3.59-60.21,3.47l-.68,1.72c.31.12,31.25,12.1,62.33-3.84q4.41,4.07,8.94,8.09l1.23-1.39q-4.59-4.05-9-8.17c20.51-37,11.25-62.51,11.16-62.77l-1.73.66C1338.16,1360.78,1347.06,1385.33,1327.25,1421.35Z"/><line class="cls-25" x1="-12.94" y1="1395.14" x2="21.47" y2="1420.13"/><path class="cls-34" d="M28.08,1162.24s8.82,70.1-23.75,145.23-19.76,126.66,24.86,129.78S125,1278.65,28.08,1162.24Z"/><path class="cls-35" d="M67.58,1398.43l-41.31,9.71c3-9.27,6.37-20.64,9.5-33.5l43.5-11.72-.48-1.79-42.51,11.46c2-8.24,3.82-17.1,5.44-26.39l41.64-16.87-.69-1.71-40.58,16.44c1.63-9.63,3-19.72,3.93-30.14l36.65-19-.85-1.64-35.63,18.42c.75-8.84,1.18-17.9,1.21-27.09l30.81-19.35-1-1.56-29.84,18.73c0-9.34-.29-18.17-.75-26.46l23.93-18.57L69.43,1236l-22.94,17.8q-.66-10.77-1.71-20.31l17.31-17.6-1.32-1.3-16.24,16.53q-1-8.82-2.25-16.55l11.51-15.35-1.48-1.11L41.87,1212c-1.16-7-2.41-13.39-3.67-19l5.26-11-1.67-.79-4.25,8.92c-4.36-18.5-8.53-28.1-8.62-28.3l-1.69.75c.11.23,5.72,13.17,10.71,38.07l-8.76-3-.61,1.74,9.79,3.4c1.08,5.59,2.12,11.74,3.06,18.47L28,1215.43l-.73,1.69,14.47,6.27c.83,6.21,1.58,12.85,2.18,20l-18.11-10.08-.89,1.61,19.18,10.68c.58,7.33,1,15.12,1.27,23.39l-23.89-13.26-.89,1.62,24.83,13.78q.16,6.35.17,13,0,8-.43,15.93l-30.75-18.72-1,1.58L45,1302.17c-.48,8.57-1.26,17-2.3,25.15L6.77,1302.18l-1.06,1.52,36.72,25.67c-1.28,9.76-2.89,19.13-4.69,28l-41.25-29-1.06,1.51,41.91,29.46c-2.11,10.17-4.45,19.63-6.81,28.18L-11,1356.87l-1.1,1.48L30,1389.43c-7.57,27-15.08,44.34-15.24,44.69l1.7.74c.11-.25,4.07-9.41,9.13-24.66l42.42-10Z"/><path class="cls-36" d="M1625,774.1c-.4-.14-.8-.29-1.2-.42v.85l2.4-.85C1625.8,773.81,1625.4,774,1625,774.1Z"/><path class="cls-37" d="M1726,1059.72c-11.79-65.37-51.1-75.47-13.76-134.3,8.26-13,8.65-29,3.94-45.71-26.13-92.77-159.77-92.15-183.17,1.34-4.06,16.22-3.31,31.71,4.73,44.37,37.34,58.83-2,68.93-13.76,134.3s39.31,42.74,39.31,81-26.53,64.89,0,91.42c6.26,6.26,14.37,8.44,23.11,8.13q38.6-1.38,77.18,0c8.74.31,16.85-1.87,23.11-8.13,26.53-26.53,0-53.12,0-91.42S1737.8,1125.08,1726,1059.72Z"/><polygon class="cls-38" points="1621.66 1149.9 1560.93 1126.98 1560.28 1128.7 1621.66 1151.88 1621.66 1211.09 1554.2 1187.69 1553.6 1189.43 1621.66 1213.04 1621.66 1240.34 1623.51 1240.34 1623.51 1213.08 1696.92 1191.84 1696.41 1190.06 1623.51 1211.15 1623.51 1151.89 1689.7 1128.71 1689.09 1126.97 1623.51 1149.93 1623.51 1065.78 1718.63 1032.11 1718.02 1030.37 1623.51 1063.82 1623.51 987.63 1697.21 963.43 1696.64 961.68 1623.51 985.68 1623.51 908.29 1713.85 872.37 1713.17 870.65 1623.51 906.3 1623.51 843.61 1662.77 818.85 1661.78 817.29 1623.51 841.42 1623.51 810.53 1621.66 810.53 1621.66 841.47 1583.52 818.68 1582.58 820.26 1621.66 843.62 1621.66 906.3 1535.75 872.09 1535.06 873.8 1621.66 908.29 1621.66 985.71 1553.64 964.66 1553.09 966.42 1621.66 987.64 1621.66 1063.79 1532 1030.37 1531.35 1032.1 1621.66 1065.76 1621.66 1149.9"/><path class="cls-39" d="M1599.41,1048.52c-29.35-34.09-16-69.47-41.8-87.2-19.08-13.08-45.93-5.82-55.82,15.09-13.4,28.33,16,52.15,7.81,96.38-10.47,56.62,26.45,52.24,26.14,105s36.3,59.66,36.3,59.66a134.58,134.58,0,0,0,56.39-15.24h0s28.14-24.42,1.3-69.83S1637,1092.15,1599.41,1048.52Z"/><polygon class="cls-40" points="1619.22 1092.8 1618.03 1091.39 1573.81 1128.53 1564.7 1094.81 1605.55 1056.05 1604.28 1054.71 1564.15 1092.79 1555.55 1060.97 1588.67 1032.41 1587.46 1031.01 1555.02 1059 1545.63 1024.28 1577.3 997.37 1576.11 995.97 1545.1 1022.31 1538.08 996.32 1566.74 970.11 1565.49 968.75 1537.53 994.31 1527.14 955.88 1525.36 956.36 1532.16 981.5 1501.97 975.5 1501.61 977.32 1532.69 983.49 1539.32 1007.98 1500.89 1007.49 1500.86 1009.34 1539.82 1009.84 1548.03 1040.23 1509.46 1039.15 1509.41 1041 1548.53 1042.09 1557.81 1076.41 1509.69 1071.87 1509.52 1073.71 1558.33 1078.32 1567.19 1111.11 1509.17 1103.57 1508.93 1105.4 1567.71 1113.04 1576.27 1144.7 1526.83 1138.7 1526.61 1140.54 1576.79 1146.63 1586.53 1182.66 1535.85 1176.87 1535.64 1178.7 1587.05 1184.58 1595.84 1217.13 1541.13 1207.68 1540.82 1209.51 1596.38 1219.1 1600.18 1233.17 1601.96 1232.68 1594.11 1203.63 1637.88 1168.95 1636.73 1167.5 1593.58 1201.68 1584.75 1169 1622.63 1136.71 1621.43 1135.3 1584.22 1167.03 1574.34 1130.5 1619.22 1092.8"/><path class="cls-41" d="M1546.66,1439.59s-86.05,3.08-98.77-75.29S1386,1265.39,1414.32,1214s-23-66.52,29.56-112.73,70.69,51.89,105.28,71.5c68.41,38.79,22,116.59,50.81,137.36S1654.18,1437.09,1546.66,1439.59Z"/><path class="cls-42" d="M1624.25,1376.38l-31.15,26.33,7.79-92.55-1.84-.15-8,94.39-27.36,23.12-30.85-92.9,36.47-70.59,19.46,8.83.76-1.69-19.37-8.78,18.14-35.13-1.64-.85-7.15,13.85-87.82-70.2,9.94-14.23,30.33,1.24.08-1.85-29.16-1.19,14.49-20.75-1.52-1-34,48.72-28.68-86.39-1.76.58,20.92,63-53.1-10.44-.36,1.81,54.12,10.64,29.78,89.71-18.12-3.36-61.14-57.71-1.27,1.35,59.06,55.74-74.27-13.78-.34,1.82,31.45,5.83-28.63,25.88,1.24,1.37,29.67-26.83,27.81,5.16-8,93.38-24.08-18.82-1.14,1.46,88.27,69-69.88-6.67-.17,1.84,32.49,3.1-13.69,24.34,1.61.9,14.09-25,63.12,6,14.38,43.3,1.75-.58-2.69-8.1,40.47-34.2,15.08,4.53.53-1.76-13.93-4.19,18.94-16Zm-133.57-204.81,88,70.36-46.62,90.24-49.47-149Zm36.08,219.06L1462,1340.06l8-94.4,33.38,6.19,46.82,141Z"/><path class="cls-43" d="M1727.26,1355c-23.69-31-37.73,9-52.06-6.32s38-19.31,22.89-57.38-45.56,4.07-54.55-10,26.77-20.38,21.31-45.29-28.85,5.14-39.17-1.47c-9.15-5.86,18.25-54.33-15.37-64.08a32,32,0,0,0-29.7,6.51c-26.46,22.93,18.71,55.48,12.84,64.64-6.6,10.31-40.42-7.18-35,17.72s40.59,15.67,38.31,32.22-47.58-9-45.37,31.9,51.42,22.65,44.8,42.54-36.09-10.53-44.64,27.52c-6.23,27.75,29.38,41.53,49.12,47,6.91,1.9,13.79,3.88,20.63,6a67.11,67.11,0,0,0,64.75-14.21c5.31-4.79,10.73-9.46,16.2-14.06C1718,1405,1744.52,1377.62,1727.26,1355Z"/><polygon class="cls-44" points="1726.69 1354.3 1649.05 1413.87 1640.12 1373.15 1675.71 1349.48 1674.69 1347.94 1639.7 1371.22 1630.97 1331.43 1693.83 1283.1 1692.7 1281.63 1630.54 1329.44 1622.74 1293.87 1643.98 1282.14 1643.09 1280.52 1622.33 1291.99 1617.15 1268.38 1664.03 1232.38 1662.91 1230.91 1616.71 1266.39 1611.32 1241.8 1624.71 1233.39 1623.73 1231.83 1610.9 1239.88 1603.87 1207.81 1624.55 1180.7 1623.08 1179.58 1603.35 1205.44 1595.54 1169.79 1593.73 1170.18 1601.55 1205.84 1572.81 1190.6 1571.95 1192.23 1602.07 1208.2 1609.1 1240.28 1594.08 1238.33 1593.84 1240.16 1609.52 1242.2 1614.91 1266.79 1558.11 1253.94 1557.7 1255.74 1615.35 1268.78 1620.53 1292.39 1596.87 1290.66 1596.73 1292.5 1620.94 1294.27 1628.75 1329.92 1551.57 1317.33 1551.27 1319.15 1629.18 1331.87 1637.89 1371.61 1596.37 1365.11 1596.09 1366.93 1638.32 1373.55 1647.24 1414.27 1551.8 1392.64 1551.39 1394.44 1647.68 1416.26 1654.67 1448.15 1656.47 1447.76 1649.48 1415.87 1727.82 1355.76 1726.69 1354.3"/><path class="cls-45" d="M113,1443.53a153.94,153.94,0,0,1-83.3-60.07c-14.75-21.36-27.62-51-5-67.41,35.18-25.41,49.36,36.35,64.46,16.19s-39.76-49.86-4.29-78.64c32.46-26.35,44.59,29.62,60.83,14.93s-28.93-45.53,6-79.13,91.27,6.17,56.66,62.23c-22.76,27.67-12.55,37.79-4.62,33.94s42.68-17.74,50.68,26.66-59.93,34.1-56.66,57.57,53.29-27.26,59.63,30.77C262.39,1446,182.34,1463.88,113,1443.53Z"/><path class="cls-46" d="M12.49,1340,43,1338.35l38.66,44.12-48.45,5.14.19,1.84,49.75-5.29,27.62,31.52-39.07,8,.37,1.81,40.1-8.21,7.2,8.22q-3.51,8.7-7.27,17.67l1.7.72q3.8-9,7.31-17.77L136,1423l26.53,29.35,1.37-1.24-25.82-28.56,38.08-8.1,34,33.54,1.3-1.32L178.3,1414l54.62-11.62,18.94,20.42,1.35-1.26L235,1401.89l22-4.68-.39-1.81-40.93,8.71,10.87-31.44-1.74-.61-11.24,32.5-65.58,14,19.75-41.66,30.2-6.15-.37-1.81L138.36,1381c6.16-17.23,11.48-33.43,16.08-48.56l14.4-4.13L205.62,1358l1.16-1.43L171,1327.64l39.08-11.2,31.2,26.41,1.19-1.41-30.25-25.62,40.32-11.55-.51-1.78-22.23,6.37,6.28-26.2-1.8-.43-6.52,27.22-34.7,10,11.59-33.53-1.74-.61-12,34.76-11.39,3.26,5.27-38.44,10.12-3.54-.61-1.75-27.91,9.79c3.49-14,6.27-26.71,8.48-38.15l43.45-21.13-.81-1.66-42.21,20.53c2.92-15.41,4.8-28.41,6-38.94l28.3-19.4-1-1.52-27,18.5c2.16-19.85,1.85-30.19,1.84-30.49l-1.84.07c0,.36.45,15.24-3.5,43.72l-32.5-24.47-1.11,1.47,33.31,25.1c-1.77,12.36-4.36,27.18-8.12,44.37l-24.33-24.28-1.31,1.3,25.17,25.12q-2,9.18-4.54,19.26l-18.23-20.81-1.39,1.21,3.38,3.87-10.31,39.45-34.7-39.29,8.35-24.15-1.74-.6-8,23.16L85.58,1253l-1.39,1.23,30.18,34.18-35.1,7,.36,1.81,36.16-7.17,27.82,31.51-48.39,19.21-7.31-7L86.63,1335l26.4,25.41-10.11,43.46L60.07,1355l7.58-30.29-1.79-.44-7.27,29-33.18-37.87L24,1316.66l17.47,19.93-29.1,1.61Zm153,37.27L145.77,1419l-23.8,5.06q8.61-21.42,15.66-41.08Zm17.3-91.78-5.25,38.31-22.49,6.44c4.17-13.84,7.72-26.77,10.76-38.8Zm-32.95-10.84,14.22,16.23c-3,12-6.59,25-10.76,38.81l-13.77-15.6Zm-5,48.29,7.79,8.82c-4.61,15.17-9.95,31.41-16.14,48.7l-39.88-38.38Zm-30.33,38.93,21.3,20.5q-7.09,19.68-15.7,41.17l-15.76-18Z"/><rect class="cls-1" x="-1.63" y="332.06" width="1698.13" height="1087.05"/><g class="cls-47"><path class="cls-48" d="M1348.41-.72l25.15,13.91s-1.68,24.74,28.44,16c0,0,63-36.38,150.8-17.85,0,0-119.68.7-135.85,38.54,0,0,10.86,27.38,37.62,8.47,0,0,19.12,26.68-20.42,33.44,0,0,75.7,6.39,37-52.26,0,0,27.69-25.74,83.57.15l55.44-36.87"/><path class="cls-48" d="M1348.41-.72l25.9-16.34s-.39-24.8,29.23-14.2c0,0,61,40.23,149.63,27.19,0,0-119.45-8.14-133.64-46.92,0,0,12.27-26.67,38-6.12,0,0,20.47-25.45-18.65-34.65,0,0,75.91-1.68,34.27,54.47,0,0,31.33,30.5,80.89,5.62l56.16,34.48"/><path class="cls-48" d="M1697.15,344.15l13.31-25.48s24.76,1.08,15.29-28.82c0,0-37.89-62.06-21.5-150.32,0,0,3.6,119.63,41.83,134.88,0,0,27.11-11.53,7.55-37.82,0,0,26.2-19.76,33.92,19.6,0,0,4.56-75.83-53.14-35.77,0,0-26.4-27-1.88-83.54l-38.21-54.54"/><path class="cls-48" d="M1697.15,344.15l-17-25.5s-24.79,1-14.91-28.87c0,0,38.74-61.92,23.55-150.24,0,0-5.23,119.61-43.66,134.73,0,0-27-11.61-7-37.84,0,0-25.94-19.85-34.19,19.48,0,0-3.52-75.84,53.63-35.58,0,0,29.73-32.06,3.65-81l33.1-57"/><rect class="cls-48" x="1652.79" y="12.71" width="30.62" height="30.62" transform="translate(1618.91 1695.64) rotate(-89.27)"/><path class="cls-48" d="M1494.85,211.29l20.05-2.46s20.79-8.89,24.46-26.31l2.34-38.18-31,3.8.36-5.88s1.49-13,21.21-18.54l-.52,14.13,10.47-1.46,1.48-24.18L1525,114.49s-21.72,7.11-25.85,26.48L1498,159.46l32.41-3.63-1.1,23.63s-3.58,16.21-17.75,18.63l-16.08,2.48Z"/><path class="cls-48" d="M1505.67,200c-2-16.52,18.78-24.42,18.78-24.42l23.89-2.94-1.13,32,18.67-2.56c19.34-5.56,24.85-27.39,24.85-27.39l.85-18.45-24.43,3.35L1566.5,170l14.29-1.62c-4,19.74-17.15,22.23-17.15,22.23l-5.93.81,1.41-30.69L1520.55,166c-17.39,5-24.78,26-24.78,26l-.91,19.82,12.18-2.07,2.47-.3"/><path class="cls-48" d="M1628.79,47.25s-10.81,13.64-26,17.52a11.36,11.36,0,0,0-9.56,8.91,8.72,8.72,0,0,1-2.55-11.39s-49.91,11.45-36.9,34.56c0,0,13.18,19.05,25,5.6,0,0,6.82-14.71-12.69-13.56,0,0,29.13-15.13,18,21,0,0-19.64,27.57-43-4.13-19.1-25.92,12.57-49.72,34.14-50.06S1623.05,53.14,1628.79,47.25Z"/><path class="cls-48" d="M1643.57,63S1631,75,1628.45,90.42a11.38,11.38,0,0,1-8,10.33,8.72,8.72,0,0,0,11.57,1.51s-6.92,50.74-31.1,39.86c0,0-20.15-11.42-7.82-24.41,0,0,14-8.12,14.64,11.42,0,0,12.45-30.37-22.57-16,0,0-25.7,22,8,42.47,27.52,16.7,48.38-17,46.78-38.49S1638.23,69.25,1643.57,63Z"/></g><g class="cls-47"><path class="cls-48" d="M339.89,3.3,314.54-10.26S315.87-35,285.87-25.84c0,0-62.43,37.28-150.52,20,0,0,119.66-2.42,135.28-40.49,0,0-11.25-27.23-37.74-7.93,0,0-19.5-26.4,19.94-33.72,0,0-75.79-5.31-36.29,52.78,0,0-27.32,26.14-83.56,1.06L78.07,3.54"/><path class="cls-48" d="M339.89,3.3,314.22,20s.76,24.79-29,14.62c0,0-61.54-39.35-150-25,0,0,119.55,6.41,134.29,45,0,0-11.88,26.84-37.91,6.66,0,0-20.11,25.74,19.14,34.38,0,0-75.87,2.78-35-54,0,0-31.76-30-81-4.45L78.07,3.54"/><path class="cls-48" d="M2.15,344.15l13.31-25.48s24.76,1.08,15.29-28.82c0,0-37.89-62.06-21.5-150.32,0,0,3.6,119.63,41.83,134.88,0,0,27.11-11.53,7.55-37.82,0,0,26.2-19.76,33.92,19.6,0,0,4.56-75.83-53.14-35.77,0,0-26.4-27-1.88-83.54L-.68,82.34"/><path class="cls-48" d="M2.15,344.15l-17-25.5s-24.79,1-14.91-28.87c0,0,38.74-61.92,23.55-150.24,0,0-5.23,119.61-43.66,134.73,0,0-26.95-11.61-7-37.84,0,0-25.94-19.85-34.19,19.48,0,0-3.52-75.84,53.63-35.58,0,0,29.73-32.06,3.65-81l33.1-57"/><rect class="cls-48" x="9.93" y="12.71" width="30.62" height="30.62" transform="translate(-3.09 52.91) rotate(-89.27)"/><path class="cls-48" d="M196.06,191.3l-1.79-20.12s-8.2-21.07-25.49-25.31l-38.08-3.6,2.77,31.15-5.86-.56s-13-1.92-17.83-21.81l14.1,1-1.11-10.52-24.12-2.28L100.31,158s6.39,21.94,25.61,26.71l18.44,1.74-2.55-32.52,23.58,1.88s16.09,4.13,18,18.37l2,16.14Z"/><path class="cls-48" d="M185.15,180.11c-16.57,1.41-23.79-19.57-23.79-19.57l-2.14-24,32,2.18L189.25,120c-4.92-19.5-26.56-25.73-26.56-25.73l-18.41-1.46,2.54,24.53,10.34,1L156,104c19.6,4.68,21.65,17.88,21.65,17.88l.61,5.95-30.63-2.42,4,38.72c4.38,17.55,25.18,25.63,25.18,25.63l19.79,1.56L195,179.07l-.22-2.48"/><path class="cls-48" d="M36.38,55.68s13.88,10.5,18.09,25.54a11.39,11.39,0,0,0,9.13,9.37,8.72,8.72,0,0,1-11.33,2.8S64.82,143,87.64,129.51c0,0,18.75-13.6,5-25.12,0,0-14.86-6.5-13.28,13,0,0-15.77-28.78,20.64-18.47,0,0,28,19-3.18,43.09-25.48,19.67-50-11.46-50.8-33S42.39,61.28,36.38,55.68Z"/><path class="cls-48" d="M51.81,40.55s12.26,12.34,27.74,14.5a11.38,11.38,0,0,1,10.5,7.79,8.71,8.71,0,0,0,1.25-11.6S142.19,57,131.85,81.45c0,0-11,20.4-24.23,8.36,0,0-8.43-13.86,11.09-14.9,0,0-30.64-11.77-15.54,22.93,0,0,22.61,25.2,42.28-8.92,16.08-27.89-18-48-39.53-45.92S58.17,45.75,51.81,40.55Z"/></g></g><g class="cls-49"><g class="cls-47"><path class="cls-48" d="M1382.41,1059.51l25.15,13.92s-1.68,24.74,28.44,16c0,0,63-36.37,150.8-17.84,0,0-119.68.7-135.85,38.54,0,0,10.86,27.38,37.62,8.46,0,0,19.12,26.68-20.42,33.44,0,0,75.7,6.4,37-52.26,0,0,27.69-25.73,83.57.16l55.44-36.87"/><path class="cls-48" d="M1382.41,1059.51l25.9-16.34s-.39-24.8,29.23-14.2c0,0,61,40.23,149.63,27.19,0,0-119.45-8.13-133.64-46.92,0,0,12.27-26.66,38-6.11,0,0,20.47-25.45-18.65-34.66,0,0,75.91-1.68,34.27,54.48,0,0,31.33,30.5,80.89,5.62l56.16,34.48"/><path class="cls-48" d="M1726.58,719.53l-13.52,25.37s-24.76-1.3-15.55,28.68c0,0,37.36,62.38,20.21,150.5,0,0-2.57-119.65-40.66-135.23,0,0-27.21,11.29-7.88,37.75,0,0-26.38,19.53-33.75-19.89,0,0-5.21,75.78,52.83,36.22,0,0,26.17,27.28,1.16,83.56l37.73,54.86"/><path class="cls-48" d="M1731.15,1404.39l-17-25.5s-24.79,1-14.91-28.87c0,0,38.74-61.93,23.55-150.25,0,0-5.23,119.62-43.66,134.74,0,0-27-11.62-7-37.85,0,0-25.94-19.85-34.19,19.49,0,0-3.52-75.85,53.63-35.59,0,0,29.73-32.06,3.65-81l33.1-57"/><rect class="cls-48" x="1687.28" y="1020.31" width="30.62" height="30.62" transform="translate(645.44 2724.94) rotate(-89.27)"/><rect class="cls-48" x="1686.79" y="1072.95" width="30.62" height="30.62" transform="translate(592.33 2776.41) rotate(-89.27)"/><path class="cls-48" d="M1532.56,868.56l1.62,20.14s8,21.14,25.27,25.53l38,3.92L1595,887l5.85.6s13,2,17.64,22l-14.09-1.11,1,10.53,24.1,2.48-1.5-18.74s-6.21-22-25.38-26.93l-18.43-1.9,2.27,32.54-23.56-2.08s-16.05-4.26-17.87-18.52l-1.81-16.16Z"/><path class="cls-48" d="M1543.37,879.84c16.58-1.26,23.62,19.78,23.62,19.78l1.94,24-32-2.46,1.78,18.76c4.75,19.55,26.34,26,26.34,26l18.39,1.62-2.33-24.56-10.33-1.08,1,14.35c-19.55-4.85-21.49-18.06-21.49-18.06l-.57-6,30.61,2.69-3.68-38.76c-4.23-17.58-25-25.84-25-25.84L1532,868.54l1.56,12.27.2,2.47"/><path class="cls-48" d="M1528.85,1271.52l20.05-2.45s20.79-8.89,24.46-26.31l2.34-38.18-31,3.79.36-5.87s1.49-13,21.21-18.54l-.52,14.12,10.47-1.45,1.48-24.19-18.66,2.28s-21.72,7.12-25.85,26.49l-1.13,18.48,32.41-3.62-1.1,23.63s-3.58,16.21-17.75,18.63l-16.08,2.48Z"/><path class="cls-48" d="M1539.67,1260.25c-2-16.51,18.78-24.42,18.78-24.42l23.89-2.93-1.13,32,18.67-2.56c19.34-5.56,24.85-27.4,24.85-27.4l.85-18.44-24.43,3.35-.65,10.36,14.29-1.61c-4,19.74-17.15,22.22-17.15,22.22l-5.93.82,1.41-30.69-38.57,5.29c-17.39,5-24.78,26-24.78,26l-.91,19.83L1541,1270l2.47-.3"/><path class="cls-48" d="M1690.44,1007.34s-13.48-11-17.14-26.19a11.37,11.37,0,0,0-8.77-9.69,8.71,8.71,0,0,1,11.42-2.39s-10.71-50.08-34-37.4c0,0-19.24,12.9-6,24.92,0,0,14.61,7,13.74-12.48,0,0,14.7,29.34-21.3,17.7,0,0-27.29-20,4.76-42.95,26.19-18.72,49.53,13.29,49.55,34.87S1684.64,1001.52,1690.44,1007.34Z"/><path class="cls-48" d="M1674.46,1021.89s-11.8-12.78-27.18-15.51a11.39,11.39,0,0,1-10.21-8.17,8.71,8.71,0,0,0-1.68,11.55s-50.64-7.66-39.4-31.69c0,0,11.71-20,24.52-7.46,0,0,7.91,14.15-11.64,14.48,0,0,30.19,12.89,16.38-22.34,0,0-21.66-26-42.58,7.36-17.1,27.27,16.27,48.63,37.81,47.34S1668.3,1016.46,1674.46,1021.89Z"/><path class="cls-48" d="M1662.79,1107.49s-10.81,13.64-26,17.51a11.38,11.38,0,0,0-9.56,8.92,8.72,8.72,0,0,1-2.55-11.39s-49.91,11.45-36.9,34.56c0,0,13.18,19,25,5.59,0,0,6.82-14.71-12.69-13.56,0,0,29.13-15.12,18,21.05,0,0-19.64,27.57-43-4.14-19.1-25.91,12.57-49.71,34.14-50S1657.05,1113.37,1662.79,1107.49Z"/><path class="cls-48" d="M1677.57,1123.25s-12.61,12-15.12,27.41a11.36,11.36,0,0,1-8,10.32,8.71,8.71,0,0,0,11.57,1.52s-6.92,50.74-31.1,39.85c0,0-20.15-11.41-7.82-24.4,0,0,14-8.12,14.64,11.42,0,0,12.45-30.37-22.57-16,0,0-25.7,22,8,42.47,27.52,16.69,48.38-17,46.78-38.5S1672.23,1129.49,1677.57,1123.25Z"/></g></g></svg>